<svg id="b" data-name="レイヤー_2" xmlns="http://www.w3.org/2000/svg" viewBox="0 0 1394.8 1366.69">
  <g id="c" data-name="レイヤー_1">
    <path d="M578.06,547.65c.61,16.26,1.07,32.53,1.86,48.79,1.03,21.27,2.42,42.53,3.45,63.8,1.69,34.74,3.29,69.48,4.8,104.22.89,20.45,1.51,40.92,2.33,61.37.86,21.62,1.75,43.23,2.81,64.84.15,3.06-.88,4.65-3.23,6.48-22.4,17.42-47.18,30-74.67,37.17-.96.25-1.92.5-2.9.63-.45.06-.93-.16-1.69-.31,1.28-9.03,3.22-17.96,3.66-26.95.9-18.25,1.49-36.54,1.28-54.8-.22-19.46-1.38-38.91-2.35-58.36-1.45-29.08-3.14-58.14-4.62-87.22-.86-16.95-1.48-33.92-2.28-50.88-1.5-31.74-3.08-63.49-4.57-95.23-.88-18.79-1.41-37.59-2.58-56.36-.94-15.08-1.53-30.31-4.19-45.12-4.36-24.22-18.97-41.62-40.45-53.13-23.59-12.64-48.39-12.88-73.51-5.72-29.57,8.43-54.15,25.24-74.26,48-25.74,29.12-44.38,62.6-57.28,99.33-8.84,25.18-14.05,51.07-17.08,77.48-.81,7.07-1.65,14.14-2.55,21.85,10.15-.52,19.53-1.01,28.91-1.49,18.28-.93,36.57-1.67,54.83-2.82,16.39-1.03,32.95-1.34,49.08-4.09,19.59-3.34,34.2-14.72,42.01-33.54,1.92-4.63,4.24-7.38,9.73-6.58,2.35.34,4.87-.47,7.85-.82.7,15.13,1.41,29.89,2.06,44.65,1.52,34.91,2.96,69.82,4.58,104.73.15,3.25-.56,4.79-3.93,4.5-.33-.03-.68-.04-1,.03-7.25,1.48-11.09-1.58-14.43-8.25-10.47-20.89-28.2-31.65-51.37-31.45-24.78.21-49.54,1.89-74.3,3.09-14.79.72-29.56,1.74-44.34,2.63-1.61.1-3.22.24-5.72.42,1.95,10.27,3.43,20.07,5.72,29.67,10.29,43.24,27.91,83.17,54.88,118.68,31.65,41.67,71.98,70.88,123.1,83.98,21.56,5.52,43.5,7.12,65.77,5.49,43.65-3.19,81.62-20.09,116.06-46.34,19.1-14.56,34.06-32.52,46.04-53.15,1.04-1.8,1.87-3.72,3.08-6.15,1.04,1.48,1.89,2.6,2.66,3.78,12.84,19.57,25.6,39.2,38.55,58.69,4.42,6.65,4.75,6.57-.11,12.78-16.57,21.14-36.86,38.26-58.67,53.64-35.46,24.99-74.8,40.21-117.72,46.55-25.3,3.74-50.67,4.98-76.08,2.63-41.9-3.88-81.86-14.82-118.49-35.97-15.04-8.68-30.04-17.81-43.64-28.53-30.19-23.78-55.95-51.84-76.58-84.49-12.33-19.51-22.7-39.85-31.36-61.27-11.68-28.88-19.83-58.64-24.19-89.36-4.48-31.56-4.29-63.28-1.49-95.07,3.86-43.81,16.01-85.38,34.25-125.05,24.82-53.96,59.49-100.47,107.71-136.14,26.62-19.69,55.76-34.23,88.13-40.98,54.75-11.41,105.67-1.99,151.07,31.73,16.4,12.18,29.88,27.54,42.41,43.51,20.21,25.75,39.86,51.96,59.6,78.08,22.04,29.16,43.94,58.42,65.84,87.68,26.19,34.97,52.24,70.03,78.5,104.95,18.38,24.45,37.04,48.7,55.5,73.1,8.02,10.6,15.83,21.35,23.75,32.03.97,1.31,1.97,2.59,4,3.7-.4-6.65-.76-13.29-1.19-19.94-1.25-19.42-2.57-38.83-3.77-58.26-1.61-26.07-3.18-52.14-4.67-78.21-.86-14.95-1.43-29.91-2.33-44.86-1.48-24.57-3.17-49.13-4.68-73.7-.87-14.28-1.58-28.57-2.32-42.86-.76-14.61-2.61-29.05-7.15-43.02-.95-2.94-.99-4.62,2.16-6.4,25.9-14.65,53.55-23.56,83.22-26.15,3.88-.34,7.76-.76,11.95-1.17-3.86,6.78-7.76,12.72-10.76,19.08-4.43,9.4-6.79,19.53-6.42,29.91.97,26.76,2.24,53.5,3.7,80.24,1.17,21.43,2.68,42.84,4.25,64.24,1.76,24.05,3.79,48.07,5.64,72.12,1.16,15.09,2.18,30.19,3.27,45.29,1.58,21.89,3.19,43.78,4.74,65.68,1.13,15.92,2.1,31.85,3.33,47.77,2.29,29.42,3.37,59.07,13.01,87.35,2.54,7.45,6.49,14.47,10.25,21.43,1.2,2.22,1.4,3.67.2,5.73-2.59,4.44-4.75,9.16-7.65,13.38-1.14,1.66-3.83,3.37-5.71,3.26-23.38-1.45-45.4-7.87-67.05-16.9-15.38-6.41-25.04-17.83-34.32-30.51-17.72-24.24-35.71-48.28-53.61-72.38-19.08-25.7-38.21-51.38-57.29-77.08-18.32-24.68-36.64-49.34-54.88-74.08-20.58-27.92-41.07-55.9-61.6-83.86-10.8-14.72-21.6-29.44-32.39-44.17-.38-.52-.62-1.15-.93-1.73-.42.26-.84.53-1.26.79ZM183.4,656.52c-.52,0-1.03.02-1.55.03-1.26,4.71-3,9.36-3.65,14.15-.62,4.51-2.9,6.57-6.94,7.84-4.58,1.45-9.01,3.39-13.5,5.11.07.45.13.9.2,1.35,3.91,1.04,7.76,2.55,11.74,3.01,5.34.62,8.06,3.29,9.62,8.27,1.53,4.87,3.84,9.5,5.81,14.24,2.74-5.75,3.97-11.35,5.76-16.76.64-1.94,2.32-4.09,4.11-4.97,3.92-1.93,8.23-3.05,12.33-4.65,1.27-.5,2.35-1.48,4.52-2.89-5.93-1.59-10.5-3-15.15-3.99-3.49-.74-5.84-2.09-7.07-5.79-1.7-5.11-4.11-9.98-6.22-14.96Z" style="fill: #fff;"/>
    <path d="M959.78,393.46c28,4.67,53.31,13.69,76.25,28.55,11.65,7.55,22.47,16.39,33.62,24.7,4.3,3.21,6.73,7.47,7.82,12.84,6.06,29.86,13.72,59.47,18.16,89.55,4.48,30.36,6.68,61.13,8.3,91.8,1.28,24.05,1.01,48.27-.1,72.34-1.59,34.51-6.38,68.66-14.02,102.44-6.43,28.46-14.19,56.49-24.11,83.88-13.84,38.22-30.79,74.96-51.91,109.83-14.84,24.5-31.55,47.55-49.67,69.64-26.48,32.3-56.99,60.37-91.16,84.27-29.47,20.61-61.42,36.6-95.4,48.53-30.89,10.84-62.7,17.41-95.29,18.86-25.05,1.12-50.26,1.09-75.29-.3-35.78-1.98-70.47-10.66-104.23-22.32-23.6-8.15-46.54-18.2-69.76-27.45-1.51-.6-2.87-1.58-4.44-2.46,1.13-3.67,1.87-7.27,3.42-10.47.6-1.24,2.99-2.04,4.66-2.26,8.2-1.1,16.68-.99,24.61-3.06,22-5.76,35.39-21.48,44.06-41.49,9.69-22.38,12-46.1,11.23-70.24-.07-2.31,0-4.61,0-7.25,27.92-4.94,54.81-12.81,80.7-25.3.44,9.69.62,18.62,1.28,27.52,2.19,29.35,4.4,58.69,7.11,87.99.24,2.6,3.74,6.2,6.43,7.03,8.66,2.67,17.55,5.29,26.52,6.08,45.92,4.08,90.14-3.65,132.97-20.34,34.94-13.61,66.6-32.65,95.6-56.37,20.83-17.04,39.29-36.36,55.83-57.48,19-24.26,34.84-50.61,47.99-78.4,16.97-35.84,30.54-72.95,38.07-112.07,5.62-29.19,9.97-58.51,12.4-88.18,2.72-33.3,1.89-66.54-.41-99.73-3.38-48.87-10.18-97.32-22.86-144.73-8.49-31.73-19.72-62.48-36.31-91.04-.72-1.24-1.12-2.67-2.04-4.93Z" style="fill: #fff;"/>
    <path d="M705.77,566.93c-19.09-25.67-37.2-50.02-55.51-74.65,8.85-20.71,19.21-40.63,32.33-59.08,13.54-19.05,28.63-36.69,46.28-52.08,27.03-23.58,57.35-41.51,90.81-54.53,28.33-11.02,57.63-17.64,87.69-20.82,19.54-2.07,39.17-1.31,58.73,1.33,26.87,3.63,52.98,9.96,78.09,20.28,20.45,8.41,39.94,18.54,58.46,30.68,24.87,16.3,47.54,35.13,67.59,57.04,25.61,27.99,46.83,59.03,62.63,93.55,6.74,14.73,12.37,29.98,18.29,45.08,8.21,20.95,11.98,43.02,15.75,65.04,4.39,25.63,5.85,51.48,5.19,77.48-.64,25-4.05,49.62-9.32,74.03-7.95,36.8-21.21,71.66-39.15,104.66-21.55,39.64-50.31,73.28-86.17,100.76-32.84,25.16-69.55,42.08-109.73,51.63-1.72.41-3.51.54-6.42.98,2.01-3.59,3.4-6.32,5.01-8.91,17.26-27.82,31.44-57.19,44.34-87.23.9-2.1,2.5-4.27,4.36-5.53,22.82-15.52,42.06-34.62,57.62-57.38,21.6-31.59,35.68-66.34,43.59-103.73,6.25-29.52,10.4-59.31,8.64-89.46-1.2-20.49-3.7-41-7.12-61.25-3.91-23.19-10.54-45.82-19.55-67.61-13.98-33.8-32.37-64.85-57.18-91.97-17.25-18.85-36.12-35.74-58.09-48.85-23.64-14.11-48.96-23.78-76.3-28.12-25.41-4.03-50.71-3.91-75.87,1.17-35.76,7.23-68.27,21.8-97.09,44.36-25.03,19.6-44.97,43.67-60.92,70.94-11.43,19.54-18.54,40.98-24.36,62.8-.7,2.63-1.44,5.25-2.59,9.42ZM1200.19,650.83c.1.48.2.97.3,1.45,4.8,1.14,9.6,2.29,14.4,3.41,3.52.82,5.42,2.74,6.45,6.49,1.34,4.91,3.81,9.52,5.79,14.26,2.87-6.65,2.92-14.25,6.65-18.9,3.67-4.58,11.07-6.17,17.8-9.55-4.55-1.5-8.59-3.46-12.82-4.06-4.95-.71-7.01-3.55-8.51-7.7-1.59-4.39-3.48-8.67-5.74-14.24-2,6.86-3.84,12.14-5,17.56-.69,3.23-2.33,4.75-5.22,5.78-4.75,1.69-9.4,3.65-14.09,5.5Z" style="fill: #fff;"/>
    <path d="M570.39,387.1c-3.08-3.51-5.2-5.95-7.34-8.38-20.88-23.69-45.66-41.89-75.25-53.25-2.69-1.03-3.06-2.54-3.4-5.1-2.11-15.92-3.21-32.13-7.14-47.62-4.61-18.2-13.88-34.5-29.25-46.26-12.83-9.82-27.13-15.11-43.67-12.45-1.37.22-3.77-1-4.41-2.22-1.74-3.33-2.79-7.03-4.4-11.35,13.3-6.13,26.47-12.33,39.75-18.29,38.58-17.34,78.24-31.77,119.05-42.87,26.72-7.27,53.7-13.45,81.39-15.76,20.36-1.7,40.74-4.08,61.13-4.31,17.73-.2,35.51,1.91,53.22,3.51,27.39,2.49,53.76,9.76,79.57,18.87,41.03,14.49,77.72,36.57,109.55,66.21,28.1,26.17,51.76,56.09,70.96,89.43.45.78.63,1.71,1.02,2.81-9.41-2.08-18.32-4.54-27.4-5.95-26.32-4.08-52.73-7.01-79.37-2.86-.49.08-1.01.01-1.49.13-10.93,2.83-17.46-1.61-25.19-10.1-33.04-36.27-72.46-62.99-121.3-73.79-24.03-5.31-48.29-6.34-72.82-5.23-25.47,1.15-50.6,4.34-75.28,10.57-14.26,3.6-28.27,8.25-42.32,12.65-1.18.37-2.64,2.52-2.59,3.79.69,19.79,1.58,39.57,2.47,59.35.43,9.47.98,18.94,1.44,28.41,1.04,21.6,2.05,43.2,3.07,64.8.06,1.24,0,2.49,0,5.24Z" style="fill: #fff;"/>
    <path d="M615.84,625.97c4.13,5.48,7.36,9.74,10.55,14.03,23.81,31.99,47.6,63.99,71.41,95.99,5.25,7.06,10.61,14.04,15.79,21.16,1.54,2.12,2.95,4.47,3.84,6.93,12.3,34.22,29.83,65.59,50.77,95.23,20.48,28.98,44.62,54.08,74.75,73.07,22.55,14.22,47.02,23.69,73.22,28.61,6.3,1.18,12.67,2.04,19.69,3.16-1.72,2.97-3.06,5.57-4.66,8.01-12.21,18.6-25.6,36.3-40.43,52.92-2.53,2.84-4.7,4.09-8.8,2.93-25.6-7.29-50.2-16.82-73.33-30.19-45.39-26.22-81.89-61.92-112.69-103.92-27.07-36.92-47.49-77.21-61.81-120.62-8.39-25.43-13.98-51.49-15.72-78.23-1.37-21.04-2.02-42.14-2.95-63.21-.06-1.41.16-2.83.36-5.87Z" style="fill: #fff;"/>
    <path d="M138.86,941.18c-1.43,6.53-3.64,12.56-3.93,18.67-.76,15.89,5.57,29.76,15.75,41.32,22.12,25.13,51.11,37.15,83.74,41.45.28.04.59-.15,1.4-.39-16.27-16.89-27.55-38.84-53.39-46.04,7.36-5.8,14.43-7.15,21.97-6.72,12.91.73,22.13,8.52,30.41,17.18,10.93,11.43,21.28,23.41,35.06,31.61,24.79,14.76,50.41,14.16,76.49,3.87,1.53-.61,3.03-1.31,5.49-2.38-.64,2.64-.94,4.62-1.59,6.49-6.77,19.53-8.12,39.17-1.72,59.1,5.53,17.2,16.28,30.46,30.08,41.8,8.2,6.73,16.28,13.86,23.18,21.87,9.68,11.24,13.45,24.28,6.71,38.73-.39.84-1.04,1.57-2.03,3.02-9.15-23.65-29.82-35.31-48.73-50.87.42,3.13.51,4.98.94,6.75,6.41,26.21,16.8,50.44,36.4,69.68,17.98,17.66,39.26,26.43,64.75,21.46,4.86-.95,9.34-3.77,14.05-5.75-3.34,10.01-13.6,20.49-25.15,25.98-22.52,10.71-44.82,8.63-66.72-1.54-34.58-16.05-55.11-44.41-67.07-79.43-11.64-34.08-10.11-68.27,2.45-101.86,3.99-10.67,9.34-20.83,14.03-31.24.17-.38.02-.9.02-1.54-7.57,4.02-14.92,8.04-22.36,11.85-26.73,13.68-55.01,21.16-85.05,17.45-41.73-5.15-77.04-22.38-100.14-59.2-10.54-16.8-15.18-35.46-11.05-55.25,2.77-13.29,9.22-24.85,20.65-32.98,1.66-1.18,3.55-2.05,5.36-3.08ZM422.95,1269.65c-13.39-3.68-25.03-10.48-35.09-19.99-25.42-24.05-39.08-54.58-47.03-87.87-4.6-19.26-6.64-39-6.39-58.89.01-1.01-.31-2.03-.47-3.04-1.08,1.23-1.59,2.44-1.73,3.69-.53,4.62-1.1,9.25-1.37,13.89-2.2,37.13,5.06,72.14,24.17,104.3,9.09,15.3,20.29,28.84,35.49,38.58,9.82,6.29,20.37,10.22,32.42,9.34ZM297.63,1062.99c-.06-.38-.12-.77-.18-1.15-.91,0-1.83-.05-2.74,0-25.19,1.7-50.09.43-74.73-5.71-23.5-5.86-45.22-15.37-64.63-29.84-13.72-10.22-23.77-23.35-29.27-39.79-.34,11.56,4.59,21.25,10.9,30.25,15.51,22.1,38.2,34.2,62.68,43.06,25.15,9.1,51.35,10.37,77.76,6.99,6.79-.87,13.47-2.52,20.2-3.81Z" style="fill: #fff;"/>
    <path d="M1101.34,1023.95c9.26,1.48,17.98,3.29,26.8,4.2,19.61,2.04,37.66-2.91,52.16-16.16,10.47-9.58,19.34-20.98,28.44-31.97,9.11-11.02,19.84-18.76,34.59-18.84,4.25-.02,8.52,1.84,12.65,2.8-8.71,7.86-17.62,14.53-24.78,22.72-7.14,8.18-12.53,17.89-19.02,27.41,11.64-.7,21.63-4.97,31.54-9.38,16.5-7.34,31.07-17.49,42.02-31.93,13.24-17.47,19.58-36.78,12.4-58.69-.95-2.9-2.72-5.54-4.11-8.3.33-.44.67-.88,1-1.33,4.22,2.85,8.91,5.2,12.58,8.63,12.6,11.79,18.76,26.54,19.57,43.82,1.25,26.46-9.09,48.2-26.7,66.94-22.12,23.53-49.97,35.44-81.68,39.16-24.4,2.86-47.53-2.53-70.19-10.83-7.77-2.85-15.38-6.12-23.56-9.4.78,1.54,1.46,3.18,2.39,4.67,6.62,10.55,14.05,20.66,19.81,31.66,16.1,30.75,21.66,63.41,13.67,97.48-5.05,21.56-14.42,41.37-29.92,57.64-15.51,16.29-34.15,26.33-57.01,28.17-21.66,1.74-43.67-9.5-52.74-28.15,1.99.62,3.61.88,5,1.59,14.37,7.3,28.23,3.98,41.56-2.58,21.61-10.63,32.73-29.76,40.42-51.51,4.9-13.87,7.46-28.08,7.33-43.26-7.85,7.66-15.37,14.97-22.86,22.33-7.69,7.56-12.96,16.57-15.53,27.76-8.5-7.89-9.38-17.04-7.28-26.61,2.59-11.81,10.24-20.79,18.33-29.19,9.43-9.8,17.53-20.33,22.85-32.96,8.54-20.27,5.22-39.99-2.4-59.53-2.15-5.52-4.84-10.83-7.34-16.35ZM1070.91,1247.75s.55.14,1.12.1c11.65-.78,21.21-6.23,29.71-13.72,10.11-8.92,17.95-19.77,23.5-31.93,17.4-38.1,18.91-77.25,6.5-117.09-.88-2.83-1.89-5.62-2.84-8.44-.29,4.34.22,8.43.75,12.53,4.41,33.84,4.3,67.26-8.43,99.68-6.76,17.21-15.25,33.35-29.51,45.47-6.3,5.36-13.99,9.09-20.79,13.4ZM1155.39,1038.92c3.73.48,6.59.84,9.44,1.22,40.84,5.51,78.2-3.65,111.92-27.13,15.01-10.45,26.65-23.92,33.04-41.44,3.34-9.16,4.21-17,2.33-22.81-7.03,23.67-12.26,33.13-25.44,44.99-25.47,22.9-55.83,35.52-89.2,41.07-13.53,2.25-27.36,2.72-42.08,4.1Z" style="fill: #fff;"/>
    <path d="M305.35,298.29c-3.99-8.64-7.26-16.01-10.78-23.25-8.31-17.08-12.39-35.15-14.11-54.03-2.15-23.55,1.12-46.16,10.94-67.52,12.78-27.76,32.53-48.92,61.96-59.24,17.98-6.3,36.1-6.58,53.33,3.29,7.64,4.38,13.65,10.35,18.06,18.58-4.9-.93-9.34-2.09-13.86-2.58-21.78-2.32-39.25,6.51-53.35,22.18-16.74,18.6-25.61,41.19-30.79,65.38-.27,1.24-.03,2.6-.03,4.61,15.98-13.91,35.11-24.09,42.48-46.1,5.35,6.95,6.69,14.51,4.67,22.47-2.64,10.42-8.75,18.77-16.7,25.95-9.59,8.66-19.67,16.79-26.84,27.89-15.94,24.67-15.43,50.27-5.24,76.63.45,1.17.95,2.32,1.58,3.85-7.41-1.47-14.3-2.98-21.24-4.19-29.67-5.15-54.66,3.46-75.05,25.63-7.64,8.3-14.91,17.07-23.42,24.39-9.52,8.18-21.2,9.72-33.32,6.1-1.99-.59-3.78-1.84-6.9-3.41,23.69-7.86,34.8-27.35,48.34-44.33-.21-.41-.42-.82-.63-1.23-6.78,1.68-13.64,3.08-20.32,5.1-22.71,6.89-43.43,17.18-59.37,35.5-10.45,12.01-16.14,25.83-15.85,41.77.08,4.54,1.67,9.06,2.64,13.57.33,1.52.88,2.99,1.34,4.48-.46.41-.91.81-1.37,1.22-4.1-3.36-8.85-6.18-12.19-10.18-17.75-21.18-18.25-44.71-7.92-69.08,11.32-26.73,32.71-43.64,57.91-55.89,31.58-15.36,64.56-17.24,98.39-7.97,16.41,4.5,31.66,11.51,47.67,20.4ZM109.64,376.9c.59-1.28,1.33-2.52,1.76-3.86,4.82-14.76,13.7-26.75,26.35-35.4,11.21-7.67,22.82-15.06,35.06-20.85,28.49-13.48,58.99-17.71,90.31-16.91,3.55.09,7.1.01,10.65.01-1.78-1.36-3.75-1.87-5.73-2.3-29.75-6.42-58.86-3.15-87.39,6.37-22.41,7.48-42.54,18.87-57.89,37.31-8.45,10.15-13.95,21.71-13.13,35.62ZM381.6,103.99c-13.36.63-25.3,5.14-35.47,13.76-13,11.03-22.79,24.59-29.79,40.09-9.55,21.15-15.16,43.29-14.8,66.6.2,12.86,1.48,25.71,2.27,38.56.61-.02,1.22-.05,1.83-.07.14-2.43.35-4.86.39-7.29.46-26.2,2.65-52.14,11.73-77.02,6.77-18.56,15.68-35.96,28.63-51.04,9.5-11.06,21.06-19.15,35.21-23.58Z" style="fill: #fff;"/>
    <path d="M1060.02,280.47c6.95-3.81,12.85-7.1,18.8-10.3,24.65-13.24,50.91-20.15,78.94-18.49,29.95,1.77,56.25,13.12,79.27,32.25,17.6,14.63,28.82,33.12,31.36,55.91,2.26,20.23-3.41,37.84-21.3,49.82-.37.25-.88.3-1.93.63.69-3.05,1.42-5.68,1.87-8.35,2.84-16.99-3.39-31.46-13.44-44.36-9.48-12.15-22.48-19.95-36.39-26.21-14.56-6.55-29.59-11.4-46.68-12.71,14.75,16.71,26.81,35.02,48.88,41.92-5.56,6.75-23.29,8.83-33.66,1.67-7.59-5.24-14.92-11.15-21.27-17.81-14.1-14.79-29.18-27.5-50.04-31.47-16.05-3.06-31.31-.07-46.37,5.18-2.03.71-4.03,1.49-6.06,2.19-.27.09-.63-.09-1.01-.15,1.41-5.84,3.22-11.61,4.17-17.52,4.08-25.29-1.49-48-19.8-66.46-8.86-8.94-18.97-16.64-28.32-25.11-6.16-5.58-10.17-12.48-12.05-20.74-1.53-6.72-.44-12.74,3.47-19.65,9.59,19.4,26.47,29.74,44.74,40.72-1.54-5.29-2.58-9.46-3.96-13.52-5.91-17.4-13.55-33.97-26.03-47.69-15.95-17.54-34.89-28.03-59.65-22.72-3.03.65-5.93,1.93-9.55,3.14.61-1.61.98-3.25,1.8-4.6,7.96-13.11,19.95-20.03,34.82-22.37,28.89-4.56,51.79,7.46,71.82,26.56,21.42,20.43,32.49,46.32,36.42,75.1,3.29,24.1-.7,47.65-9.38,70.37-3,7.85-5.98,15.7-9.44,24.79ZM1093.39,278.98c.14.5.27.99.41,1.49,7.14-.31,14.28-.85,21.42-.9,30.73-.19,59.92,6.62,87.84,19.37,18.18,8.31,34.23,19.17,45.15,36.39,2.59,4.09,4.74,8.45,7.1,12.69-1.93-12.5-6.88-23.51-15.19-32.97-11.38-12.95-26.06-21.11-41.52-27.77-26.16-11.26-53.69-14.9-81.97-12.46-7.81.67-15.49,2.75-23.23,4.18ZM1056.35,245.49c.22.03.43.06.65.09.33-1.03.85-2.03.95-3.08,3.2-32.96-.91-64.62-16.47-94.34-8.59-16.42-19.22-31.09-34.73-41.67-9.3-6.35-19.32-10.83-31.08-10.71.31.46.43.8.67.97.4.28.85.52,1.32.68,16.15,5.32,28.75,15.5,39.27,28.58,20.8,25.88,31.19,56.05,36.18,88.35,1.59,10.3,2.18,20.75,3.22,31.13Z" style="fill: #fff;"/>
    <path d="M495.89,1287.97c-9.64,14.42-23.01,21.63-39.73,21.52-9.49-.06-18.85-2.34-26.79-8.44,8-3.37,15.75-6.14,23.04-9.82,15.61-7.88,25.46-21.55,34.29-35.96,1.75-2.86,3.46-4.37,6.54-3.73,16.77,3.47,32.89,8.27,44.3,22.38,9.35,11.55,14.29,12.98,26.54,4.77,20.57-13.78,41.86-15.1,64.36-6.17,7.32,2.91,14.63,5.83,22.69,9.04-27.81,21.04-56.07,35.37-91.13,21.26,7.44,7.66,16.01,12.71,26.04,15.18,23.33,5.75,45.74,1.97,67.71-6.5,19.52-7.53,37.4-17.85,53.42-31.36,1.14-.96,2.27-2.06,3.6-2.66,2.51-1.13,5.17-1.94,7.76-2.89-.78,2.75-.86,6.02-2.45,8.16-23.41,31.45-52.25,54.91-92.09,62.14-38.38,6.96-72.6-11.3-89.3-47.6-2.35-5.1-4.79-10.16-7.34-15.16-.78-1.54-2.04-2.83-3.07-4.24-.44.21-.89.42-1.33.63,7.22,21.92,14.43,43.83,21.85,66.37-13.39-3.49-26.6-7.78-36.91-17.85-10.89-10.63-11.97-24.57-11.99-39.06ZM562.51,1298.96c12.25.57,24.98-1.77,37.55-10.13-13.7,3.7-26.17,7.06-37.55,10.13Z" style="fill: #fff;"/>
    <path d="M1070.21,1279.18c-9.88,8.77-21.24,12.59-34.24,11.15-12.77-1.41-23.18-7.56-32.31-17.17.95,13.81,1.36,27.32-8.65,38.38-9.35,10.34-21.51,15.55-34.79,20.02,5.21-22.6,10.24-44.4,15.27-66.21l-1.75-.75c-1.19,2.26-2.47,4.49-3.55,6.8-5.15,10.93-9.54,22.3-15.53,32.75-10.06,17.55-26.72,26.42-45.83,30.49-31.33,6.66-58.97-3.38-84.45-20.72-13.63-9.27-26.12-20.05-36.45-33.05-2.23-2.81-3.96-6.02-5.91-9.05.24-.48.48-.96.72-1.43,1.63.39,3.49.41,4.87,1.23,7.55,4.49,15.01,9.15,22.46,13.81,23.62,14.77,49.18,23.76,77.1,24.99,20.1.88,38.46-4.02,53.18-19.54-34.43,16.27-62.49,1.25-90.83-17.62,22.44-11.03,43.76-23.01,69.17-14.33,7.15,2.44,13.74,6.51,20.57,9.87,7.68,3.78,13.39,2.63,18.08-4.32,10.7-15.87,26.67-23.36,44.23-28.53,3.3-.97,4.74.95,6.4,3.17,9.61,12.9,20.12,25.07,35.19,31.63,8.39,3.65,17.53,5.54,27.07,8.44ZM901.46,1278.77c6.68,6.68,32.66,11.63,38.6,8.06-12.25-2.56-25.5-5.33-38.6-8.06Z" style="fill: #fff;"/>
    <path d="M100.39,922.83c-39.15,6.22-53.7-19.31-60.07-45.54,11.15,3.22,22.46,6.65,33.86,9.75,11.26,3.05,22.61,5.77,33.92,8.63.21-.57.43-1.14.64-1.71-5.94-2.66-12-5.09-17.8-8.02-8.82-4.46-17.97-8.51-26.07-14.07-16.23-11.13-25.52-27.26-28.9-46.44-5.11-29.02,4.97-54.27,20.96-77.69,8.67-12.71,19.17-23.82,31.31-33.31,1.34-1.05,2.95-1.77,4.43-2.64.5.29.99.58,1.49.87-.77,2.62-1.05,5.53-2.4,7.8-10.42,17.52-20.75,35.04-26.24,54.92-5.95,21.55-8.07,43.2.46,64.46,2.82,7.05,7.92,13.19,13.01,19.46-14.92-33.26-.7-59.7,18.08-86.33,8.4,16.71,16.26,32.14,16.77,50.11.32,11.32-3.26,21.43-8.1,31.43-2.02,4.17-3.46,9.03-3.54,13.61-.05,2.94,2.1,7.06,4.56,8.71,16.42,11.03,23.27,28,29.17,45.59.43,1.27-.72,3.63-1.85,4.77-6.82,6.8-14.39,12.93-20.69,20.16-10.37,11.91-16.26,26.06-18.22,42.11-8.86-9.45-13.05-20.67-12.21-33.51.85-13.05,7.36-23.49,17.46-33.13ZM85.03,858.58c2.21-11.54,4.37-22.86,6.54-34.17-6.82,10.57-7.72,22.2-6.54,34.17Z" style="fill: #fff;"/>
    <path d="M1312.65,733.95c21.05,25.1,38.59,49.89,26.75,84.78,5.87-5.51,10.25-13.88,12.38-22.3,4.04-16.01,1.75-31.68-2.72-47.13-6.35-21.95-17.35-41.52-31.39-59.44-3.37-4.3-7-8.4-10.27-12.77-.69-.93-.36-2.63-.49-3.97,1.28.03,2.87-.42,3.8.17,29.96,18.83,53.72,43.14,64.37,77.69,7.33,23.78,4.96,46.93-9.57,68.01-8.15,11.82-19.22,19.99-32.01,26.13-4.33,2.08-8.51,4.49-12.67,6.9-1.49.86-2.74,2.14-4.1,3.23.28.57.56,1.13.84,1.7,20.97-7.97,41.94-15.94,63.24-24.03-1.76,13.33-5.18,26.38-14.49,37.15-9.92,11.46-23.46,12.53-38.5,11.97,14.72,9.37,22.49,22,23.52,38.02.64,9.91-1.94,19.52-8.42,28.93-2.2-5.67-3.87-10.42-5.86-15.04-5.48-12.77-13.6-23.54-24.88-31.76-5.63-4.1-11.49-7.88-17.08-12.03-1.1-.82-2.27-2.98-1.94-4.07,3.44-11.19,6.6-22.53,11.11-33.3,2.15-5.13,6.95-9.18,10.67-13.61,6.51-7.74,6.76-13.66.15-21.51-9.98-11.85-15.68-25.43-13.76-40.8,1.38-11.04,5.28-21.77,8.13-32.61.79-3.01,1.84-5.94,3.2-10.29ZM1334.44,821.17c1.98-11.73-3.93-30.82-10.86-36.32,3.51,11.74,7.13,23.84,10.86,36.32Z" style="fill: #fff;"/>
    <path d="M85.64,439.34c-19.97-23.82-22.22-50.66-5.62-65.65,2.38,29.64,20.2,48.33,43.91,62.98-4.08,13.76-7.5,27.47-16.97,38.48-2.56,2.98-5.57,5.63-8.64,8.11-6.03,4.87-6.61,14.31-3.03,20.76,4.13,7.45,8,15.32,10.21,23.48,3.04,11.22.11,22.41-3.9,33.09-3.11,8.29-6.7,16.39-10.41,25.38-10.94-12.4-18.49-25.57-23.09-40.18-4.66-14.83-4.49-29.69,3.45-43.88-7.64,4.14-11.01,11.26-13.7,18.67-8.32,22.86-4.49,45.31,2.31,67.75,5.87,19.36,16.5,36.09,27.68,52.61,1.49,2.21,1.99,5.09,2.94,7.66-2.43-.92-5.26-1.32-7.22-2.84-27.29-21.07-48.25-46.79-55.01-81.43-6.13-31.43,3.77-60.02,33.55-78.93,8.04-5.11,17.23-8.39,25.81-12.67,3.64-1.81,7.09-4.01,10.62-6.04-.18-.37-.36-.74-.54-1.11-11.31,2.99-22.7,5.72-33.91,9.03-11,3.25-21.83,7.1-33.21,10.84,2.46-13.9,8.03-25.8,17.41-35.55,9.91-10.3,23.03-11.39,37.35-10.58ZM77.14,502.09c-3.43,7.05.62,28.39,6.4,32.71-2.15-10.98-4.3-21.96-6.4-32.71Z" style="fill: #fff;"/>
    <path d="M1303.85,463.01c9.72,14.39,12.39,29.03,8.86,44.53-3.3,14.52-10.14,27.54-18.35,41.25-3.79-6.89-7.25-12.96-10.51-19.14-7.65-14.5-11.24-29.81-7.7-46.08,1.29-5.91,4.27-11.43,6.21-17.22,3.12-9.31,2.07-14.02-6.12-19.22-13.87-8.8-20.91-22.25-26.86-36.66-.75-1.83-1.45-3.68-2.37-6.01,23.07-15.21,36.33-36.37,36.34-64.85,6.73,1.59,14.74,18.61,14.61,31.11-.13,12.55-4.24,23.66-13.15,33.2,13.79-3.05,26.9-2.83,38.13,6.48,10.58,8.76,16.37,20.64,20.73,33.71-22.14-4.53-43.91-8.98-65.67-13.43l-.63,1.83c3.76,1.62,7.46,3.41,11.3,4.81,12.43,4.54,25.16,8.31,35.89,16.6,23.31,18.01,32.05,41.95,28.55,70.64-3.23,26.44-16.37,48.36-32.77,68.56-4.48,5.53-9.56,10.59-14.56,15.68-1.07,1.09-2.98,1.35-4.51,2-.16-1.82-1.04-3.98-.37-5.41,5.35-11.4,11.73-22.37,16.4-34.03,11.47-28.58,15.82-57.77,4.69-87.71-3.01-8.1-8.69-14-14.85-19.62-.4-.36-1.12-.37-3.31-1.04ZM1299.74,464.22c-1.24,10.91-2.49,21.83-3.73,32.74.44.04.88.08,1.32.12,2.69-10.79,6.69-21.44,2.42-32.86Z" style="fill: #fff;"/>
    <path d="M504.84,63.3c31.44-12.6,56.29.55,80.82,19.45-15.97,6.34-30.47,14.92-47.4,13.56-8.23-.66-16.28-3.89-24.34-6.17-2.36-.67-4.51-2.06-6.75-3.13-9.07-4.36-14.79-3.46-20.97,4.64-7.19,9.41-16.2,16.15-27.11,20.31-6,2.29-12.3,3.79-19.03,5.82-12.87-24.7-32.62-39.66-61.03-42,12.9-16.38,42.86-14.34,64.03,4.36.14-13.1-.12-26.32,10.42-35.71,9.58-8.53,20.73-14.49,33.22-17.03-5.97,21.18-11.85,42.04-17.73,62.9.71.28,1.41.56,2.12.84,3.92-8.29,7.87-16.57,11.77-24.88,13.33-28.42,39.95-44.91,71.16-43.45,22.33,1.05,42.1,9.5,58.83,24.01,11.12,9.64,21.06,20.66,31.36,31.23,1.97,2.02,3.16,4.8,4.9,7.52-4.95,2.2-7.38-.96-10.07-2.75-8.56-5.7-16.61-12.29-25.57-17.26-21.61-11.99-44.48-19.94-69.77-17.97-14.53,1.14-27.75,5.68-38.85,15.7ZM505.03,70.05c10.14,1.9,20.27,3.8,30.89,5.79-9.45-7.21-19.75-7.89-30.89-5.79Z" style="fill: #fff;"/>
    <path d="M976.91,68.19c-33.97,8.31-44.83,20.25-59.11,43.73-14.28-3.84-29.07-6.66-39.79-18.38-2.13-2.33-4.23-4.7-6.23-7.14-5.36-6.5-12.23-7.68-19.66-3.41-12.26,7.04-24.9,12.6-39.63,10.66-13.81-1.82-26.42-6.99-39.79-13.54,7.76-5.08,14.58-9.98,21.8-14.19,13.67-7.97,28.3-12.32,44.29-9.25,4.82.93,9.48,2.7,14.21,4.08.24-.41.48-.82.72-1.23-4.4-2.63-8.57-5.76-13.23-7.79-17.88-7.8-36.3-7.98-55.12-3.6-24.97,5.81-46.31,18.43-66.22,34-2.37,1.85-5.2,3.13-7.82,4.67-.49-.41-.98-.82-1.47-1.22,1.91-3.5,3.46-7.26,5.77-10.46,13.86-19.18,31.29-34.76,52.44-44.97,24.61-11.88,50.43-14.38,75.64-.82,15.89,8.55,27.06,21.63,33.5,38.62,2.69,7.09,5.81,13.95,12.2,19-6.69-21.25-13.37-42.49-20.03-63.62,4.93-.88,26.53,8.92,33.68,15.94,10.05,9.87,10.77,22.85,11.56,36.61,9.65-12.28,21.72-18.57,36.5-17.68,9.09.55,18.44,2.01,25.77,9.98ZM854.21,66.34c-7.84-3.78-26.05.22-31.98,6.62,10.27-2.13,20.98-4.34,31.98-6.62Z" style="fill: #fff;"/>
    <path d="M772.32,1047.69c-9.64,3.72-19.29,7.44-28.93,11.16-.62.24-1.22.56-1.86.69-8.69,1.86-11.86,7.7-13.47,16.06-1.96,10.16-5.58,20.01-8.48,29.99-.46.03-.91.06-1.37.1-2.21-5.48-4.55-10.9-6.6-16.44-2.13-5.74-4.19-11.52-5.9-17.4-1.39-4.79-4.31-7.48-9.01-8.87-10.95-3.24-21.84-6.69-32.74-10.09-1.1-.34-2.13-.87-4.11-1.7,1.81-.96,2.94-1.74,4.19-2.2,10.27-3.75,20.51-7.58,30.87-11.07,4.92-1.66,7.4-4.65,8.64-9.71,2.72-11.08,6.01-22.02,9.11-33.01.21-.73.74-1.37,1.75-3.19,2.54,6.57,4.77,12.19,6.9,17.85,2.39,6.35,4.27,12.94,7.22,19.01,1.26,2.59,4.38,5.03,7.18,5.98,10.03,3.4,20.29,6.09,30.44,9.14,2.12.64,4.12,1.64,6.18,2.48,0,.4,0,.8,0,1.2Z" style="fill: #fff;"/>
    <path d="M212.91,1186.3c3.12-7.99,5.92-16.13,9.45-23.93,3.51-7.74,5.83-14.64.62-23.08-4.85-7.86-7.65-17-11.87-26.79,12.1,4.72,22.77,9.03,33.58,12.95,2.15.78,5.15.75,7.26-.13,10.83-4.5,21.5-9.4,33.49-14.72-2.57,6.87-4.72,12.69-6.92,18.49-2.11,5.57-4.44,11.05-6.27,16.71-.54,1.67-.11,3.95.58,5.66,4.02,9.98,8.27,19.87,12.4,29.81.66,1.6,1.1,3.3,1.97,5.96-10.73-4.54-20.54-8.4-30.07-12.85-4.76-2.22-8.73-2.37-13.57,0-9.63,4.71-19.63,8.68-29.48,12.96-.39-.35-.78-.69-1.17-1.04Z" style="fill: #fff;"/>
    <path d="M1251.31,1081.42c-1.35,4.37-2.67,8.75-4.05,13.11-2.1,6.62-4.36,13.19-6.26,19.87-.43,1.52-.1,3.62.65,5.05,4.64,8.81,9.54,17.48,14.28,26.24,1.16,2.15,2.06,4.43,3.54,7.63-4.21-1.08-7.54-1.83-10.81-2.8-7.29-2.17-14.6-4.3-21.79-6.77-4.1-1.41-7.77-1.1-11.45,1-6.63,3.77-13.26,7.53-19.92,11.23-2.71,1.5-5.5,2.84-9.49,4.88,1.06-4.09,1.71-6.86,2.49-9.6,1.18-4.14,1.96-8.47,3.75-12.33,5.44-11.7,3.44-22.11-3.63-32.53-4.11-6.06-6.82-13.06-10.54-20.38,11.98,3.73,22.94,7.3,34.01,10.46,2.27.65,5.32.48,7.43-.52,10.31-4.88,20.43-10.18,30.61-15.33.39.26.78.52,1.16.78Z" style="fill: #fff;"/>
    <path d="M689.09,349.44c-1.59-2.92-2.78-4.63-3.51-6.52-3.52-9.1-6.99-18.22-10.31-27.39-1.68-4.65-4.79-7.05-9.58-8.19-8.52-2.03-16.95-4.5-25.38-6.9-2.66-.76-5.21-1.89-9.23-3.37,5-2.23,8.65-3.97,12.39-5.49,7.51-3.05,15.03-6.07,22.62-8.91,3.58-1.34,5.6-3.53,6.6-7.3,2.74-10.39,5.82-20.7,8.78-31.03.26-.92.68-1.79,1.53-3.99,2.13,4.13,3.99,7.18,5.33,10.45,3.14,7.66,6.18,15.37,8.96,23.16,1.59,4.46,4.79,6.35,9.04,7.55,10.18,2.87,20.3,5.96,30.42,9.02.87.26,1.62.94,3.74,2.22-4.98,2.17-8.89,4.07-12.94,5.59-6.03,2.27-12.14,4.33-18.26,6.36-5.79,1.92-9.46,5.56-10.91,11.66-2.14,9.01-4.63,17.93-7.03,26.87-.45,1.69-1.19,3.31-2.26,6.21Z" style="fill: #fff;"/>
    <path d="M260.19,252.07c-2.87-1.03-4.66-1.61-6.39-2.31-3.84-1.54-7.63-3.23-11.5-4.7-22.97-8.71-14.66-8.43-37.93,1.28-5.26,2.19-10.45,4.53-15.68,6.8-.34-.38-.69-.75-1.03-1.13,3.35-7.99,6.22-16.22,10.19-23.88,4.02-7.77,4.35-14.48-.31-22.29-4.52-7.57-7.41-16.1-11.02-24.21.33-.41.66-.81.99-1.22,6.47,2.63,12.95,5.24,19.39,7.92,2.14.89,4.38,1.72,6.24,3.05,6.84,4.93,13.14,3.32,19.97-.42,8.05-4.4,16.58-7.92,25.79-10.93-3.23,8.03-5.83,16.4-9.85,24.01-4.16,7.88-4.6,14.77.04,22.58,3.7,6.22,6.2,13.16,9.17,19.8.64,1.43,1.03,2.97,1.94,5.65Z" style="fill: #fff;"/>
    <path d="M1094.75,163.3c11.56,4.13,21.79,7.99,32.18,11.34,2.53.82,5.89.74,8.35-.23,9.54-3.77,18.86-8.08,28.28-12.15.85-.37,1.82-.47,3.99-1-3.64,9.06-6.62,17.37-10.3,25.36-2.94,6.38-3.97,12.04-.19,18.69,4.79,8.43,8.45,17.49,12.6,26.28l-.95,1.05c-3.92-1.44-7.87-2.79-11.74-4.34-6.15-2.45-12.13-5.39-18.42-7.39-2.84-.9-6.6-.9-9.32.22-8.87,3.65-17.44,8.01-26.14,12.06-1.14.53-2.38.83-4.64,1.6,3.28-9.26,5.75-17.83,9.34-25.91,3.11-6.98,2.72-12.92-.92-19.57-4.41-8.06-7.82-16.67-12.11-26.02Z" style="fill: #fff;"/>
    <path d="M716.6,1328.51c7.74-3.22,15.4-6.67,23.27-9.55,4.13-1.51,6.51-3.65,7.52-8.1,1.61-7.1,3.84-14.07,6.01-21.03.35-1.14,1.69-1.96,2.58-2.94.74.95,1.75,1.8,2.17,2.87,2.87,7.41,5.36,14.99,8.56,22.25.89,2.03,3.53,3.85,5.77,4.62,6.87,2.36,13.94,4.15,20.91,6.22,1.5.45,2.92,1.17,5.67,2.3-2.54,1.61-3.86,2.75-5.39,3.36-6.77,2.7-13.54,5.47-20.45,7.76-3.42,1.13-5.24,2.95-6.02,6.39-1.54,6.78-3.21,13.55-5.1,20.24-.41,1.43-2,2.53-3.05,3.78-.96-1.12-2.33-2.09-2.82-3.39-2.27-6.05-4.56-12.11-6.32-18.32-1.29-4.55-3.89-6.9-8.41-7.94-6.46-1.48-12.82-3.36-19.21-5.13-1.86-.52-3.67-1.23-5.51-1.86-.05-.52-.1-1.03-.15-1.55Z" style="fill: #fff;"/>
    <path d="M38.25,720.91c-2.15-6.37-4.51-12.67-6.4-19.12-1.62-5.51-4.34-9.29-10.41-10.58-5.49-1.17-10.8-3.18-16.13-4.99-1.8-.61-3.42-1.74-5.12-2.63-.06-.53-.13-1.06-.19-1.59,4.75-1.87,9.36-4.42,14.29-5.47,9.82-2.09,15.68-7.05,17.18-17.44.8-5.52,3.41-10.77,5.2-16.14.58-.02,1.17-.03,1.75-.05,2.06,5.44,4.16,10.86,6.17,16.32.91,2.48,1.18,5.34,2.61,7.44,1.53,2.27,3.77,4.61,6.24,5.6,5.98,2.41,12.27,4.01,18.41,6.03,1.99.65,3.89,1.58,7.38,3.03-2.91,1.71-4.48,2.93-6.25,3.62-6.17,2.38-12.36,4.72-18.64,6.78-3.8,1.25-5.55,3.86-6.49,7.46-1.59,6.08-3.16,12.17-5.01,18.17-.47,1.51-1.98,2.7-3.01,4.03-.53-.15-1.05-.31-1.58-.46Z" style="fill: #fff;"/>
    <path d="M1318.02,638.45c7.44-3.03,14.79-6.31,22.36-9,3.92-1.39,5.77-3.71,6.76-7.6,1.9-7.48,4.24-14.85,6.39-22.26.45-.12.9-.23,1.35-.35,1.35,3.17,3.23,6.22,3.97,9.52,2.97,13.34,10.66,21.02,24.61,22.24,3.03.26,5.97,1.84,8.88,2.99.93.37,1.65,1.29,2.46,1.95-.76.73-1.4,1.77-2.31,2.14-5.95,2.46-11.89,4.94-17.96,7.09-4.9,1.74-8.03,4.31-8.91,9.96-1.11,7.12-3.28,14.08-5.4,22.8-1.83-2.33-3.21-3.49-3.83-4.97-2.66-6.41-4.81-13.05-7.74-19.32-1.04-2.23-3.48-4.46-5.79-5.33-7.08-2.67-14.42-4.65-21.65-6.96-1.06-.34-2.03-.99-3.03-1.5-.05-.46-.11-.93-.16-1.39Z" style="fill: #fff;"/>
    <path d="M642.04,35.8c6.82-2.51,13.56-5.24,20.48-7.44,3.76-1.2,5.71-3.28,6.77-7.04,1.99-7.12,4.43-14.11,6.69-21.15.51-.06,1.02-.11,1.53-.17,2.48,6.5,5.28,12.9,7.32,19.53,1.37,4.45,3.77,7.01,8.19,8.24,7.12,1.98,14.15,4.27,21.21,6.43.05.48.1.96.15,1.44-6.04,2.38-11.94,5.25-18.16,7.02-6.58,1.87-9.72,5.67-10.99,12.29-1.17,6.07-3.6,11.89-5.47,17.83-.6.05-1.21.09-1.81.14-1.15-2.76-2.89-5.43-3.35-8.3-2.17-13.67-8.91-22.42-23.51-23.94-3.17-.33-6.18-2.21-9.27-3.38.07-.49.15-.99.22-1.48Z" style="fill: #fff;"/>
    <path d="M1027.58,1067.79c2.53,6.58,5.25,13.1,7.5,19.77,1.08,3.18,2.75,4.82,6.02,5.66,7.32,1.86,14.54,4.14,21.8,6.24.08.52.16,1.03.23,1.55-3.95,1.65-7.77,3.95-11.89,4.82-10.74,2.27-16.58,8.23-17.33,19.4-.24,3.62-1.95,7.15-2.99,10.71-.56.11-1.11.22-1.67.33-1.63-3.79-3.32-7.56-4.84-11.39-.6-1.52-.92-3.19-1.19-4.82-.97-5.94-4.23-9.07-10.33-10.25-6.25-1.21-12.27-3.56-18.55-6.7,5.48-2.31,10.8-5.2,16.49-6.77,6.5-1.79,9.5-5.46,10.44-11.99.79-5.48,2.67-10.8,4.07-16.19l2.21-.38Z" style="fill: #fff;"/>
    <path d="M392.45,1092.65c6.22-2.48,12.36-5.22,18.7-7.33,4.09-1.36,6.24-3.67,7.2-7.83,1.48-6.4,3.43-12.69,5.17-19.03.53-.13,1.05-.25,1.58-.38,2.12,5.19,4.95,10.22,6.18,15.61,1.3,5.71,3.73,8.84,9.65,10.12,6.58,1.42,12.91,3.98,19.65,7.19-2.54,1.1-5.05,2.26-7.63,3.28-1.53.61-3.12,1.22-4.74,1.45-10.86,1.56-15.51,8.41-16.69,18.72-.45,3.92-1.96,7.72-2.98,11.57-.61.05-1.22.11-1.82.16-1.34-3.53-3.29-6.96-3.89-10.62-1.75-10.54-6.82-16.99-18.16-17.95-4.1-.35-8.05-2.47-12.07-3.78-.05-.4-.09-.79-.14-1.19Z" style="fill: #fff;"/>
    <path d="M403.04,303.66c-1.97-5.5-4.21-10.93-5.83-16.54-1.18-4.07-3.68-5.79-7.56-6.73-5.86-1.43-11.62-3.31-17.42-5-.07-.51-.14-1.01-.2-1.52,5.78-2.15,11.48-4.54,17.37-6.35,3.69-1.14,5.76-2.72,6.54-6.85,1.13-5.97,3.26-11.75,5.38-19.01,1.45,3,2.46,4.89,3.28,6.85.9,2.13,1.93,4.26,2.38,6.5,1.66,8.2,6.66,12.28,14.82,13.49,3.97.59,7.77,2.4,11.64,3.66.09.45.18.91.27,1.36-3.54,1.31-6.98,3.1-10.64,3.83-8.66,1.73-14.23,5.76-14.93,15.37-.27,3.71-2.31,7.29-3.54,10.93h-1.57Z" style="fill: #fff;"/>
  </g>
</svg>